<svg width="296" height="166" fill="none" xmlns="http://www.w3.org/2000/svg"><path opacity=".3" d="M35 51h261v.5H35V51ZM35 87h261v.5H35V87ZM35 123h261v.5H35v-.5Z" fill="#D6DAE6"/><path fill-rule="evenodd" clip-rule="evenodd" d="M135.127 147.049h19.979a8.24 8.24 0 1 1 0 16.479h-19.979a8.24 8.24 0 0 1-3.805-15.55v-12.591a.891.891 0 0 1 1.781 0v11.912a8.281 8.281 0 0 1 2.024-.25Z" fill="url(#a)"/><path d="M136.254 158.759v.643h-.927v-.761l-.084-.013c-.849-.134-1.637-.511-2.362-1.135l.861-1.046c.528.449 1.013.744 1.456.878l.129.039v-1.796l-.075-.019c-.736-.189-1.262-.44-1.591-.746-.322-.298-.49-.733-.49-1.319 0-.58.19-1.053.565-1.426.38-.374.878-.602 1.504-.679l.087-.01v-.509h.927v.529l.087.012c.661.093 1.324.361 1.987.808l-.757 1.089c-.421-.292-.818-.491-1.19-.595l-.127-.035v1.738l.075.02c.757.197 1.304.457 1.652.774.338.309.514.751.514 1.339 0 .584-.194 1.059-.58 1.436-.388.378-.91.609-1.572.684l-.089.01v.09Zm-.927-6.002v-.141l-.133.047a.815.815 0 0 0-.387.258.665.665 0 0 0-.136.42c0 .161.044.306.133.432a.959.959 0 0 0 .379.306l.144.071v-1.393Zm1.066 3.126-.139-.058v1.593l.13-.041a.924.924 0 0 0 .453-.281.723.723 0 0 0 .158-.473.682.682 0 0 0-.138-.433c-.093-.12-.254-.219-.464-.307Z" fill="#fff" stroke="url(#b)" stroke-width=".2"/><path d="M145.62 158.759v.643h-.927v-.761l-.085-.013c-.849-.134-1.636-.511-2.362-1.135l.861-1.046c.529.449 1.013.744 1.457.878l.129.039v-1.796l-.076-.019c-.735-.189-1.262-.44-1.591-.746-.322-.298-.489-.733-.489-1.319 0-.58.19-1.053.564-1.426.38-.374.879-.602 1.504-.679l.088-.01v-.509h.927v.529l.086.012c.662.093 1.324.361 1.987.808l-.756 1.089c-.422-.292-.818-.491-1.19-.595l-.127-.035v1.738l.075.02c.756.197 1.303.457 1.652.774.338.309.513.751.513 1.339 0 .584-.194 1.059-.58 1.436-.388.378-.91.609-1.572.684l-.088.01v.09Zm-.927-6.002v-.141l-.133.047a.818.818 0 0 0-.388.258.665.665 0 0 0-.135.42c0 .161.043.306.132.432a.962.962 0 0 0 .38.306l.144.071v-1.393Zm1.065 3.126-.138-.058v1.593l.13-.041a.925.925 0 0 0 .452-.281.723.723 0 0 0 .158-.473.687.687 0 0 0-.137-.433c-.094-.12-.255-.219-.465-.307Z" fill="#fff" stroke="url(#c)" stroke-width=".2"/><path d="M154.983 158.759v.643h-.927v-.761l-.085-.013c-.849-.134-1.636-.511-2.361-1.135l.861-1.046c.528.449 1.013.744 1.456.878l.129.039v-1.796l-.075-.019c-.736-.189-1.263-.44-1.592-.746-.322-.298-.489-.733-.489-1.319 0-.58.19-1.053.565-1.426.379-.374.878-.602 1.503-.679l.088-.01v-.509h.927v.529l.086.012c.662.093 1.324.361 1.987.808l-.756 1.089c-.421-.292-.818-.491-1.19-.595l-.127-.035v1.738l.075.02c.756.197 1.303.457 1.652.774.338.309.514.751.514 1.339 0 .584-.194 1.059-.581 1.436-.388.378-.91.609-1.571.684l-.089.01v.09Zm-.927-6.002v-.141l-.133.047a.818.818 0 0 0-.388.258.665.665 0 0 0-.135.42c0 .161.043.306.132.432a.962.962 0 0 0 .38.306l.144.071v-1.393Zm1.066 3.126-.139-.058v1.593l.13-.041a.924.924 0 0 0 .453-.281.723.723 0 0 0 .158-.473.682.682 0 0 0-.138-.433c-.094-.12-.255-.219-.464-.307Z" fill="#fff" stroke="url(#d)" stroke-width=".2"/><path d="m293 165-37.266-95.743c-4.073-11.31-9.353-17.784-14.867-18.23-5.324-.424-10.567 4.838-14.761 14.832l-2.208 5.26c-4.32 10.29-9.655 15.833-15.165 15.833-.487 0-.976-.044-1.466-.131-3.173-.566-6.227-2.918-9.078-6.991-2.925-4.177-5.503-9.988-7.663-17.27l-.285-.958c-4.652-15.68-11.296-24.038-18.228-22.93-3.563.57-7.074 3.675-10.153 8.98-3.301 5.686-6.013 13.59-8.06 23.488l-2.144 10.362c-5.7 34.529-12.136 52.427-19.127 53.194a4.248 4.248 0 0 1-.465.025c-6.502-.001-13.099-14.93-19.615-44.4-2.049-7.173-4.505-12.899-7.301-17.017-2.691-3.965-5.574-6.269-8.57-6.847-5.659-1.093-11.228 4.2-15.681 14.905l-.22.529c-4.337 10.424-9.698 16.033-15.244 16.032a8.365 8.365 0 0 1-1.558-.147c-3.223-.61-6.318-3.058-9.2-7.277-2.958-4.33-5.552-10.332-7.709-17.841C46.966 72.658 38 13 .5 2" stroke="url(#e)" stroke-width="3"/><path fill-rule="evenodd" clip-rule="evenodd" d="M175.779 27.87h19.98a8.24 8.24 0 0 0 8.239-8.24 8.24 8.24 0 0 0-8.239-8.24h-19.98a8.24 8.24 0 0 0-3.804 15.55v12.591a.89.89 0 0 0 1.781 0V27.62c.647.164 1.325.25 2.023.25Z" fill="url(#f)"/><path d="M176.905 23.416v.643h-.927v-.761l-.085-.013c-.849-.134-1.636-.51-2.362-1.134l.861-1.047c.529.45 1.014.744 1.457.878l.129.039v-1.796l-.075-.019c-.736-.189-1.263-.44-1.592-.745-.322-.3-.489-.733-.489-1.32 0-.58.19-1.053.565-1.426.379-.374.878-.602 1.503-.678l.088-.011v-.509h.927v.529l.086.012c.662.093 1.324.361 1.987.808l-.756 1.089c-.421-.292-.818-.491-1.19-.595l-.127-.035v1.738l.075.02c.756.197 1.303.457 1.652.774.338.31.514.75.514 1.339 0 .584-.194 1.06-.581 1.436-.388.378-.91.609-1.571.685l-.089.01v.089Zm-.927-6.002v-.14l-.133.046a.82.82 0 0 0-.388.258.662.662 0 0 0-.135.42c0 .161.043.307.132.433a.975.975 0 0 0 .38.305l.144.07v-1.392Zm1.066 3.126-.139-.058v1.593l.13-.04a.933.933 0 0 0 .453-.282.722.722 0 0 0 .158-.473.682.682 0 0 0-.138-.433c-.094-.12-.255-.22-.464-.307Z" fill="#fff" stroke="url(#g)" stroke-width=".2"/><path d="M186.27 23.416v.643h-.927v-.761l-.084-.013c-.85-.134-1.637-.51-2.362-1.134l.861-1.047c.528.45 1.013.744 1.456.878l.129.039v-1.796l-.075-.019c-.736-.189-1.263-.44-1.592-.745-.321-.3-.489-.733-.489-1.32 0-.58.19-1.053.565-1.426.379-.374.878-.602 1.503-.678l.088-.011v-.509h.927v.529l.086.012c.662.093 1.324.361 1.987.808l-.756 1.089c-.421-.292-.818-.491-1.19-.595l-.127-.035v1.738l.075.02c.756.197 1.303.457 1.652.774.338.31.514.75.514 1.339 0 .584-.194 1.06-.58 1.436-.389.378-.911.609-1.572.685l-.089.01v.089Zm-.927-6.002v-.14l-.133.046a.82.82 0 0 0-.388.258.662.662 0 0 0-.135.42c0 .161.043.307.132.433a.975.975 0 0 0 .38.305l.144.07v-1.392Zm1.066 3.126-.139-.058v1.593l.13-.04a.929.929 0 0 0 .453-.282.722.722 0 0 0 .158-.473.682.682 0 0 0-.138-.433c-.094-.12-.255-.22-.464-.307Z" fill="#fff" stroke="url(#h)" stroke-width=".2"/><path d="M195.633 23.416v.643h-.927v-.761l-.084-.013c-.849-.134-1.637-.51-2.362-1.134l.861-1.047c.528.45 1.013.744 1.456.878l.129.039v-1.796l-.075-.019c-.736-.189-1.262-.44-1.591-.745-.322-.3-.49-.733-.49-1.32 0-.58.19-1.053.565-1.426.38-.374.878-.602 1.503-.678l.088-.011v-.509h.927v.529l.086.012c.662.093 1.325.361 1.987.808l-.756 1.089c-.421-.292-.818-.491-1.19-.595l-.127-.035v1.738l.075.02c.757.197 1.303.457 1.652.774.338.31.514.75.514 1.339 0 .584-.194 1.06-.58 1.436-.388.378-.91.609-1.572.685l-.089.01v.089Zm-.927-6.002v-.14l-.133.046a.825.825 0 0 0-.388.258.668.668 0 0 0-.135.42c0 .161.044.307.132.433a.982.982 0 0 0 .38.305l.144.07v-1.392Zm1.066 3.126-.139-.058v1.593l.13-.04a.929.929 0 0 0 .453-.282.722.722 0 0 0 .158-.473.682.682 0 0 0-.138-.433c-.093-.12-.255-.22-.464-.307Z" fill="#fff" stroke="url(#i)" stroke-width=".2"/><defs><linearGradient id="a" x1="136.946" y1="88.737" x2="136.883" y2="165.741" gradientUnits="userSpaceOnUse"><stop stop-color="#003FFF" stop-opacity="0"/><stop offset=".225" stop-color="#7163FC" stop-opacity="0"/><stop offset=".474" stop-color="#003FFF" stop-opacity="0"/><stop offset=".917" stop-color="#003FFF"/></linearGradient><linearGradient id="b" x1="134.498" y1="191.801" x2="134.308" y2="150.094" gradientUnits="userSpaceOnUse"><stop stop-color="#003FFF" stop-opacity="0"/><stop offset=".225" stop-color="#7163FC" stop-opacity="0"/><stop offset=".302" stop-color="#A272FB" stop-opacity="0"/><stop offset=".927" stop-color="#BE7BFA"/></linearGradient><linearGradient id="c" x1="143.863" y1="191.801" x2="143.673" y2="150.094" gradientUnits="userSpaceOnUse"><stop stop-color="#003FFF" stop-opacity="0"/><stop offset=".225" stop-color="#7163FC" stop-opacity="0"/><stop offset=".302" stop-color="#A272FB" stop-opacity="0"/><stop offset=".927" stop-color="#BE7BFA"/></linearGradient><linearGradient id="d" x1="153.227" y1="191.801" x2="153.036" y2="150.094" gradientUnits="userSpaceOnUse"><stop stop-color="#003FFF" stop-opacity="0"/><stop offset=".225" stop-color="#7163FC" stop-opacity="0"/><stop offset=".302" stop-color="#A272FB" stop-opacity="0"/><stop offset=".927" stop-color="#BE7BFA"/></linearGradient><linearGradient id="e" x1="188.5" y1="172.5" x2="82.583" y2="-18.394" gradientUnits="userSpaceOnUse"><stop stop-color="#010C27" stop-opacity="0"/><stop offset=".23" stop-color="#003FFF"/><stop offset=".474" stop-color="#BE7BFA"/><stop offset=".732" stop-color="#A272FB"/><stop offset="1" stop-color="#010C27" stop-opacity="0"/></linearGradient><linearGradient id="f" x1="177.598" y1="86.181" x2="177.536" y2="9.177" gradientUnits="userSpaceOnUse"><stop stop-color="#003FFF" stop-opacity="0"/><stop offset=".225" stop-color="#7163FC" stop-opacity="0"/><stop offset=".474" stop-color="#A272FB" stop-opacity="0"/><stop offset=".917" stop-color="#BE7BFA"/></linearGradient><linearGradient id="g" x1="175.148" y1="56.458" x2="174.958" y2="14.751" gradientUnits="userSpaceOnUse"><stop stop-color="#003FFF" stop-opacity="0"/><stop offset=".225" stop-color="#7163FC" stop-opacity="0"/><stop offset=".302" stop-color="#A272FB" stop-opacity="0"/><stop offset=".927" stop-color="#BE7BFA"/></linearGradient><linearGradient id="h" x1="184.514" y1="56.458" x2="184.323" y2="14.751" gradientUnits="userSpaceOnUse"><stop stop-color="#003FFF" stop-opacity="0"/><stop offset=".225" stop-color="#7163FC" stop-opacity="0"/><stop offset=".302" stop-color="#A272FB" stop-opacity="0"/><stop offset=".927" stop-color="#BE7BFA"/></linearGradient><linearGradient id="i" x1="193.877" y1="56.458" x2="193.687" y2="14.751" gradientUnits="userSpaceOnUse"><stop stop-color="#003FFF" stop-opacity="0"/><stop offset=".225" stop-color="#7163FC" stop-opacity="0"/><stop offset=".302" stop-color="#A272FB" stop-opacity="0"/><stop offset=".927" stop-color="#BE7BFA"/></linearGradient></defs></svg>