<svg width="23" height="19" fill="none" xmlns="http://www.w3.org/2000/svg"><path d="M11.352 10.684c.41 0 .83-.215 1.26-.646l8.922-8.828C21.15.847 20.45.666 19.432.666H2.922c-.867 0-1.469.168-1.804.503l8.972 8.87c.424.43.845.645 1.262.645ZM.267 16.683l7.25-7.168-7.27-7.167c-.158.294-.236.79-.236 1.487v11.32c0 .725.085 1.234.256 1.528Zm2.963 1.65h16.51c.854 0 1.452-.163 1.794-.491L14.14 10.52l-.677.687c-.69.656-1.395.985-2.112.985-.725 0-1.43-.329-2.113-.985l-.687-.687-7.372 7.311c.39.335 1.073.503 2.05.503Zm19.175-1.66c.164-.301.246-.807.246-1.518V3.835c0-.69-.075-1.176-.225-1.456l-7.25 7.136 7.23 7.158Z" fill="url(#a)"/><defs><linearGradient id="a" x1="41.576" y1="29.691" x2="-6.936" y2="-2.628" gradientUnits="userSpaceOnUse"><stop stop-color="#001B6C"/><stop offset=".43" stop-color="#003FFF"/><stop offset="1" stop-color="#BE7BFA"/></linearGradient></defs></svg>