<svg width="150" height="150" fill="none" xmlns="http://www.w3.org/2000/svg"><circle cx="75" cy="75" r="75" fill="#fff" fill-opacity=".1"/><circle cx="75" cy="75" r="35.5" stroke="#fff" stroke-opacity=".1"/><path fill-rule="evenodd" clip-rule="evenodd" d="M74.957 65.708C77.106 63.475 78.791 62 82.036 62 86.586 62 90 65.413 90 69.795c0 2.613-1.139 4.972-3.54 7.543L74.957 89.81l-11.46-12.472C61.094 74.768 60 72.408 60 69.795 60 65.371 63.285 62 67.794 62c3.286 0 5.098 1.475 7.163 3.708Zm12.178 4.255c0-2.95-2.107-5.225-5.225-5.225v.001c-2.332 0-3.88 1.643-5.403 3.201V84.5l8.142-9.27c1.727-1.854 2.486-3.456 2.486-5.267ZM73.506 84.5l-8.24-9.27c-1.644-1.81-2.402-3.454-2.402-5.266 0-2.95 2.106-5.225 5.098-5.225 2.422 0 3.98 1.564 5.544 3.201V84.5Z" fill="#fff"/><path fill-rule="evenodd" clip-rule="evenodd" d="M74.957 65.708C77.106 63.475 78.791 62 82.036 62 86.586 62 90 65.413 90 69.795c0 2.613-1.139 4.972-3.54 7.543L74.957 89.81l-11.46-12.472C61.094 74.768 60 72.408 60 69.795 60 65.371 63.285 62 67.794 62c3.286 0 5.098 1.475 7.163 3.708Zm12.178 4.255c0-2.95-2.107-5.225-5.225-5.225v.001c-2.332 0-3.88 1.643-5.403 3.201V84.5l8.142-9.27c1.727-1.854 2.486-3.456 2.486-5.267ZM73.506 84.5l-8.24-9.27c-1.644-1.81-2.402-3.454-2.402-5.266 0-2.95 2.106-5.225 5.098-5.225 2.422 0 3.98 1.564 5.544 3.201V84.5Z" fill="url(#a)"/><mask id="b" style="mask-type:alpha" maskUnits="userSpaceOnUse" x="11" y="11" width="128" height="128"><circle cx="75" cy="75" r="64" fill="#D9D9D9"/></mask><g mask="url(#b)" fill="#fff"><path d="M43.763 129.54c-1.936-1.129-2.253-3.237-1.372-4.798.92-1.63 2.437-2.041 4.232-1.672l.59-1.045 1.393.786-1.014 1.798c-2.157-.574-3.271-.064-3.83.926-.519.919-.301 2.163.772 2.768 1.337.755 3.105-.067 3.13-2l1.519.012c.011 3.203-2.977 4.658-5.42 3.225Zm4.652-7.921a1.02 1.02 0 0 1-.39-1.395c.292-.515.902-.685 1.404-.402.515.291.685.901.395 1.417a1.025 1.025 0 0 1-1.41.38ZM41.474 114.321l1.238 1.013-6.08 7.429-1.238-1.013 6.08-7.429ZM38.02 111.159l-1.11.989-1.937-2.174-6.057 5.396-1.054-1.183 7.158-6.397 3 3.369ZM21.67 108.058l1.24-.732-3.317-5.622 10.504-1.405.252 1.561-8.303 1.072 2.96 5.016-2.523 1.488-.813-1.378ZM19.443 86.728l-4.58 1.384-.463-1.531 4.58-1.384c2.895-.875 5.481.55 6.38 3.521.897 2.971-.468 5.59-3.362 6.465l-4.58 1.384-.463-1.532 3.002-.907-.763-2.527-3.002.907-.454-1.501 4.411-1.333 1.217 4.028.169-.05c2.021-.612 2.99-2.442 2.37-4.494-.62-2.053-2.44-3.04-4.462-2.43ZM23.019 72.108l-9.533-1.133 1.09-9.167 9.533 1.133-1.09 9.167Zm-7.866-2.546 6.577.782.712-5.99-6.577-.782-.712 5.99ZM21.744 55.967l-.493 1.522-4.902-1.586.493-1.522 4.902 1.586ZM30.304 48.496a5.053 5.053 0 0 1-6.898 1.967 5.053 5.053 0 0 1-1.967-6.898 5.053 5.053 0 0 1 6.898-1.967 5.053 5.053 0 0 1 1.967 6.898Zm-1.328-.739c.933-1.678.303-3.804-1.417-4.76-1.72-.957-3.858-.371-4.792 1.307-.933 1.678-.303 3.804 1.417 4.76 1.72.957 3.858.371 4.792-1.307ZM34.642 41.574l-1.114-.987 1.93-2.18-6.072-5.378 1.05-1.186 7.198 6.353-2.992 3.378ZM38.027 24.737c2.354-1.768 5.27-1.295 7.037 1.06 1.767 2.354 1.407 5.285-.948 7.053-.96.72-2.377 1.204-3.916.859l.297-1.444c.992.176 2.016-.112 2.681-.612 1.574-1.181 1.868-3.242.619-4.906-1.249-1.663-3.31-1.957-4.883-.775-.666.499-1.229 1.402-1.337 2.403l-1.469-.117c.099-1.575.959-2.8 1.919-3.521ZM53.611 16.374l3.247 7.434 1.613-.704.596 1.363-7.874 3.44-.596-1.364 4.795-2.095-2.651-6.07-4.795 2.094-.595-1.363 6.26-2.735ZM70.584 14.022l-.022-1.488 9.423-.14.144 9.598-1.6.024-.122-8.11-4.431.066.121 8.11-3.871.059-.023-1.488 2.272-.034-.1-6.623-1.79.026ZM85.945 23.106l-1.574-.286 1.716-9.445 1.574.286-1.716 9.445ZM95.236 26.213a5.053 5.053 0 0 1-2.866-6.576 5.053 5.053 0 0 1 6.575-2.866 5.053 5.053 0 0 1 2.866 6.575 5.053 5.053 0 0 1-6.575 2.867Zm.556-1.415c1.787.702 3.81-.205 4.53-2.036.72-1.832-.146-3.874-1.933-4.576-1.787-.702-3.81.205-4.53 2.036-.72 1.832.146 3.874 1.933 4.576ZM112.462 24.341c2.069 1.481 2.493 4.048.966 6.182l-3.158 4.41-1.301-.932 3.149-4.397c1.006-1.405.786-3.077-.541-4.027-1.34-.96-2.971-.632-3.986.786l-3.14 4.384-1.301-.932 3.149-4.397c1.537-2.146 4.095-2.558 6.163-1.077ZM124.902 39.287l1.266-.781 4.946 8.021-8.171 5.039-.84-1.362 6.905-4.258-2.326-3.772-6.905 4.258-2.032-3.296 1.266-.781 1.193 1.934 5.638-3.477-.94-1.525ZM132.168 52.86l1.423-.438 2.767 9.009-9.177 2.819-.47-1.53 7.755-2.382-1.302-4.236-7.754 2.381-1.137-3.7 1.422-.438.667 2.172 6.333-1.945-.527-1.713ZM138.701 68.714l-1.437.095.43 6.514-10.011-3.477.478-1.507 7.897 2.782-.384-5.81 2.922-.194.105 1.597ZM126.507 87.08l9.125 2.982-2.868 8.775-9.125-2.983 2.868-8.775Zm7.213 4.04-6.296-2.058-1.874 5.734 6.296 2.058 1.874-5.734ZM124.59 103.156l.781-1.396 4.495 2.518-.782 1.396-4.494-2.518ZM120.458 117.818l-1.505.325-1.113-5.944-5.541.01-.037-.031 5.962-7.111 1.141.956-3.897 4.646 9.572-.034.069 1.561-5.724.003 1.073 5.619ZM107.844 115.706l1.238-1.014 6.08 7.43-1.238 1.013-6.08-7.429ZM97.984 121.944l1.394-.787 3.986 7.066 4.598-2.595.731 1.296-5.992 3.381-4.717-8.361Z"/></g><defs><linearGradient id="a" x1="107.475" y1="92.037" x2="65.944" y2="54.729" gradientUnits="userSpaceOnUse"><stop stop-color="#001B6C"/><stop offset=".43" stop-color="#003FFF"/><stop offset="1" stop-color="#BE7BFA"/></linearGradient></defs></svg>