<svg width="176" height="77" fill="none" xmlns="http://www.w3.org/2000/svg"><g clip-path="url(#a)"><path d="M27.001 65.496c-3.526 0-6.337 2.556-6.337 5.752 0 3.196 2.811 5.752 6.337 5.752 1.402 0 2.766-.417 3.811-1.198l.052-.039-1.292-1.36-.045.03c-.704.477-1.565.743-2.506.743-2.352 0-4.268-1.754-4.268-3.928s1.916-3.928 4.268-3.928c.94 0 1.802.266 2.506.743l.045.03 1.293-1.36-.053-.04c-1.045-.78-2.409-1.197-3.81-1.197Z" fill="url(#b)"/><path d="M46.359 65.496h-.146v11.199h2.069V69.79L55.941 77h.146V65.802h-2.07v6.904l-7.658-7.21Z" fill="url(#c)"/><path fill-rule="evenodd" clip-rule="evenodd" d="M64.678 65.496c-3.525 0-6.357 2.555-6.357 5.752 0 3.197 2.832 5.752 6.357 5.752 3.526 0 6.337-2.556 6.337-5.752 0-3.196-2.811-5.752-6.337-5.752Zm-4.268 5.752c0-2.174 1.897-3.928 4.268-3.928 2.352 0 4.248 1.754 4.248 3.928s-1.896 3.928-4.248 3.928c-2.371 0-4.268-1.754-4.268-3.928Z" fill="url(#d)"/><path fill-rule="evenodd" clip-rule="evenodd" d="M87.378 65.496c-3.525 0-6.356 2.555-6.356 5.752 0 3.197 2.83 5.752 6.356 5.752s6.338-2.556 6.338-5.752c0-3.196-2.811-5.752-6.338-5.752Zm-4.268 5.752c0-2.174 1.897-3.928 4.268-3.928 2.352 0 4.248 1.754 4.248 3.928s-1.896 3.928-4.248 3.928c-2.371 0-4.268-1.754-4.268-3.928Z" fill="url(#e)"/><path d="M101.929 65.496c-3.487 0-6.358 2.591-6.358 5.752 0 3.161 2.871 5.752 6.358 5.752 2.091 0 3.783-.77 4.86-2.042 1.078-1.272 1.538-3.041 1.177-5.03l-.009-.05h-6.05v1.734h4.069c-.072 2.07-1.854 3.564-4.028 3.564-2.391 0-4.287-1.772-4.287-3.928 0-2.156 1.896-3.928 4.287-3.928.902 0 1.783.249 2.467.708l.046.031 1.231-1.42-.054-.037c-1.024-.69-2.327-1.106-3.709-1.106Z" fill="url(#f)"/><path d="M129.969 65.622c-1.004 0-1.882.268-2.511.754a2.52 2.52 0 0 0-1.006 2.052c0 .946.428 1.587 1.064 2.06.632.472 1.47.78 2.293 1.067.646.234 1.223.46 1.64.757.414.295.663.657.663 1.163 0 .574-.249.987-.652 1.256-.405.271-.972.4-1.609.391-1.204-.018-2.247-.77-2.383-2.066l-.006-.063-2.028.344.005.054c.131 1.238.716 2.106 1.53 2.666.813.559 1.849.808 2.88.817 1.241.01 2.343-.28 3.136-.853.795-.575 1.276-1.432 1.276-2.546 0-.962-.407-1.638-1.012-2.141-.602-.502-1.401-.832-2.186-1.111a41.596 41.596 0 0 1-.193-.069h-.001c-.603-.216-1.157-.413-1.573-.658-.458-.269-.735-.585-.735-1.031 0-.37.151-.653.399-.846.25-.193.603-.299 1.009-.299.937 0 1.452.637 1.548 1.278l.009.061 1.987-.344-.008-.056c-.223-1.598-1.665-2.637-3.536-2.637Z" fill="url(#g)"/><path d="M8.325 65.802H0v1.788h3.118v9.105h2.109V67.59h3.098v-1.788Z" fill="url(#h)"/><path d="M17.328 65.802h-6.775v10.893h9.159v-1.788h-7.05v-2.882h5.878v-1.734h-5.878V67.59h4.666v-1.788Z" fill="url(#i)"/><path d="M35.285 65.802h-2.11v10.893h2.11v-5.73H41.1v5.73h2.108V65.802H41.1v3.375h-5.816v-3.375Z" fill="url(#j)"/><path d="M75.366 65.802h-2.11v10.893h7.035v-1.789h-4.925v-9.104Z" fill="url(#k)"/><path d="M112.442 65.802h-2.109v10.893h2.109V65.802Z" fill="url(#l)"/><path d="M122.214 65.802h-6.776v10.893h9.159v-1.788h-7.05v-2.882h5.879v-1.734h-5.879V67.59h4.667v-1.788Z" fill="url(#m)"/><path d="M10.235 31.262H0v24.554h10.235c7.915 0 12.722-4.91 12.722-12.277 0-7.366-4.807-12.277-12.722-12.277ZM7.127 49.555V37.523h2.694c3.605 0 6.008 2.415 6.008 6.016 0 3.602-2.403 6.016-6.008 6.016H7.127Zm41.131 4.215-12.68-23.452h-.166L22.691 53.77l6.257 2.988 1.74-3.397h9.614l1.699 3.397 6.257-2.988Zm-15.415-5.647 2.61-5.443 2.653 5.443h-5.263Zm31.624-5.853-13.84-11.95h-.124v25.496h6.795V44.808l13.84 11.95h.125V31.262h-6.796V42.27Zm18.414 13.546V31.262h-7.127v24.554h7.127Zm18.411-13.546-13.84-11.95h-.125v25.496h6.797V44.808l13.839 11.95h.125V31.262h-6.796V42.27Z" fill="url(#n)"/><path d="M138.878 39.433c-14.355-7.364-21.856-.263-22.084 3.456.552 11.728 11.156 13.114 11.156 13.114 18.896 3.156 13.204 18.936 13.204 18.936 9.934-14.074 7.286-29.194-2.276-35.506Z" fill="url(#o)"/><path d="M125.984.089c-24.258 1.15-33.55 17.072-28.771 26.458 37.747-18.131 68.599-1.578 71.796 11.835C184.434 21.533 161.901-1.613 125.984.09Z" fill="url(#p)"/><path d="M116.791 51.879c4.457 10.206 34.303 6.258 52.654-10.98 10.305-9.683 6.263-25.956-8.081-32.795 11.143 12.333-1.946 20.56-5.661 23.112-3.348 2.3-35.952 21.633-38.684 10.586 0 0-2.227 5.498-.228 10.077Z" fill="url(#q)"/></g><defs><linearGradient id="b" x1="26.235" y1="89.634" x2="26.235" y2="53.617" gradientUnits="userSpaceOnUse"><stop stop-color="#001B6C"/><stop offset=".156" stop-color="#003FFF"/><stop offset=".455" stop-color="#003FFF"/><stop offset="1" stop-color="#BE7BFA"/></linearGradient><linearGradient id="c" x1="51.605" y1="89.634" x2="51.605" y2="53.617" gradientUnits="userSpaceOnUse"><stop stop-color="#001B6C"/><stop offset=".156" stop-color="#003FFF"/><stop offset=".455" stop-color="#003FFF"/><stop offset="1" stop-color="#BE7BFA"/></linearGradient><linearGradient id="d" x1="65.254" y1="89.634" x2="65.254" y2="53.617" gradientUnits="userSpaceOnUse"><stop stop-color="#001B6C"/><stop offset=".156" stop-color="#003FFF"/><stop offset=".455" stop-color="#003FFF"/><stop offset="1" stop-color="#BE7BFA"/></linearGradient><linearGradient id="e" x1="87.954" y1="89.634" x2="87.954" y2="53.617" gradientUnits="userSpaceOnUse"><stop stop-color="#001B6C"/><stop offset=".156" stop-color="#003FFF"/><stop offset=".455" stop-color="#003FFF"/><stop offset="1" stop-color="#BE7BFA"/></linearGradient><linearGradient id="f" x1="102.406" y1="89.634" x2="102.406" y2="53.617" gradientUnits="userSpaceOnUse"><stop stop-color="#001B6C"/><stop offset=".156" stop-color="#003FFF"/><stop offset=".455" stop-color="#003FFF"/><stop offset="1" stop-color="#BE7BFA"/></linearGradient><linearGradient id="g" x1="130.254" y1="89.232" x2="130.254" y2="54.003" gradientUnits="userSpaceOnUse"><stop stop-color="#001B6C"/><stop offset=".156" stop-color="#003FFF"/><stop offset=".455" stop-color="#003FFF"/><stop offset="1" stop-color="#BE7BFA"/></linearGradient><linearGradient id="h" x1="4.546" y1="88.658" x2="4.546" y2="54.554" gradientUnits="userSpaceOnUse"><stop stop-color="#001B6C"/><stop offset=".156" stop-color="#003FFF"/><stop offset=".455" stop-color="#003FFF"/><stop offset="1" stop-color="#BE7BFA"/></linearGradient><linearGradient id="i" x1="15.555" y1="88.658" x2="15.555" y2="54.554" gradientUnits="userSpaceOnUse"><stop stop-color="#001B6C"/><stop offset=".156" stop-color="#003FFF"/><stop offset=".455" stop-color="#003FFF"/><stop offset="1" stop-color="#BE7BFA"/></linearGradient><linearGradient id="j" x1="38.655" y1="88.658" x2="38.655" y2="54.554" gradientUnits="userSpaceOnUse"><stop stop-color="#001B6C"/><stop offset=".156" stop-color="#003FFF"/><stop offset=".455" stop-color="#003FFF"/><stop offset="1" stop-color="#BE7BFA"/></linearGradient><linearGradient id="k" x1="77.098" y1="88.658" x2="77.098" y2="54.554" gradientUnits="userSpaceOnUse"><stop stop-color="#001B6C"/><stop offset=".156" stop-color="#003FFF"/><stop offset=".455" stop-color="#003FFF"/><stop offset="1" stop-color="#BE7BFA"/></linearGradient><linearGradient id="l" x1="111.485" y1="88.658" x2="111.485" y2="54.554" gradientUnits="userSpaceOnUse"><stop stop-color="#001B6C"/><stop offset=".156" stop-color="#003FFF"/><stop offset=".455" stop-color="#003FFF"/><stop offset="1" stop-color="#BE7BFA"/></linearGradient><linearGradient id="m" x1="120.44" y1="88.658" x2="120.44" y2="54.554" gradientUnits="userSpaceOnUse"><stop stop-color="#001B6C"/><stop offset=".156" stop-color="#003FFF"/><stop offset=".455" stop-color="#003FFF"/><stop offset="1" stop-color="#BE7BFA"/></linearGradient><linearGradient id="n" x1="-2" y1="65" x2="3.037" y2="19.904" gradientUnits="userSpaceOnUse"><stop stop-color="#001B6C"/><stop offset=".205" stop-color="#003CF2"/><stop offset=".455" stop-color="#003FFF"/><stop offset="1" stop-color="#BE7BFA"/></linearGradient><linearGradient id="o" x1="141.05" y1="99.553" x2="114.997" y2="7.603" gradientUnits="userSpaceOnUse"><stop stop-color="#001B6C"/><stop offset=".455" stop-color="#003FFF"/><stop offset="1" stop-color="#BE7BFA"/></linearGradient><linearGradient id="p" x1="118.174" y1="42.838" x2="118.198" y2="-4.51" gradientUnits="userSpaceOnUse"><stop stop-color="#001B6C"/><stop offset=".455" stop-color="#003FFF"/><stop offset="1" stop-color="#BE7BFA"/></linearGradient><linearGradient id="q" x1="120.884" y1="81.138" x2="156.568" y2="-7.043" gradientUnits="userSpaceOnUse"><stop stop-color="#001B6C"/><stop offset=".455" stop-color="#003FFF"/><stop offset="1" stop-color="#BE7BFA"/></linearGradient><clipPath id="a"><path fill="#fff" d="M0 0h176v77H0z"/></clipPath></defs></svg>