<svg width="20" height="21" fill="none" xmlns="http://www.w3.org/2000/svg"><path d="M5.209 14.77a25.947 25.947 0 0 0 3.117 2.667c1.094.793 2.188 1.422 3.281 1.886 1.094.465 2.13.698 3.107.698.663 0 1.282-.12 1.856-.36a4.37 4.37 0 0 0 1.559-1.127c.273-.3.489-.626.646-.974.157-.342.236-.687.236-1.036 0-.26-.052-.506-.154-.738a1.44 1.44 0 0 0-.523-.615l-3.148-2.236a3.493 3.493 0 0 0-.666-.369 1.573 1.573 0 0 0-.585-.123 1.31 1.31 0 0 0-.677.195 3.2 3.2 0 0 0-.676.533l-.729.718a.51.51 0 0 1-.39.164.686.686 0 0 1-.235-.041 8.459 8.459 0 0 1-.174-.072c-.322-.17-.732-.465-1.23-.882a25.269 25.269 0 0 1-2.892-2.902c-.424-.499-.718-.905-.882-1.22a2.45 2.45 0 0 1-.082-.184.854.854 0 0 1-.031-.226c0-.15.051-.277.154-.38l.728-.748c.225-.232.403-.458.533-.677.13-.218.195-.444.195-.676 0-.185-.045-.38-.133-.585a3.245 3.245 0 0 0-.38-.666L4.83 1.687a1.57 1.57 0 0 0-.636-.533 1.803 1.803 0 0 0-.78-.175c-.704 0-1.363.298-1.978.892a4.527 4.527 0 0 0-1.098 1.59A5.002 5.002 0 0 0 0 5.306c0 .985.229 2.02.687 3.107.458 1.08 1.08 2.164 1.866 3.25a25.668 25.668 0 0 0 2.656 3.108Z" fill="url(#a)"/><defs><linearGradient id="a" x1="35.349" y1="30.332" x2="-9.925" y2="4.48" gradientUnits="userSpaceOnUse"><stop stop-color="#001B6C"/><stop offset=".43" stop-color="#003FFF"/><stop offset="1" stop-color="#BE7BFA"/></linearGradient></defs></svg>