<?xml version="1.0" encoding="utf-8"?><svg viewBox="0 0 176 150" xmlns="http://www.w3.org/2000/svg" xmlns:xlink="http://www.w3.org/1999/xlink"><style>:root>svg{display:none}:root>svg:target{display:block}</style><svg viewBox="0 0 16 19" id="arrow-down" xmlns="http://www.w3.org/2000/svg"><path fill-rule="evenodd" clip-rule="evenodd" d="M.5 11.488 8 19l7.5-7.512-1.323-1.325-5.241 5.248V0H7.064v15.412l-5.24-5.25L.5 11.489Z"/></svg><svg viewBox="0 0 150 150" id="circle" xmlns="http://www.w3.org/2000/svg"><circle cx="75" cy="75" r="75"/><circle cx="75" cy="75" r="74.5"/><circle cx="75" cy="75" r="35.5"/><path fill-rule="evenodd" clip-rule="evenodd" d="M74.957 65.708C77.106 63.475 78.791 62 82.036 62 86.586 62 90 65.413 90 69.795c0 2.613-1.139 4.972-3.54 7.543L74.957 89.81l-11.46-12.472C61.094 74.768 60 72.408 60 69.795 60 65.371 63.285 62 67.794 62c3.286 0 5.098 1.475 7.163 3.708Zm12.178 4.255c0-2.95-2.107-5.225-5.225-5.225v.001c-2.332 0-3.88 1.643-5.403 3.201V84.5l8.142-9.27c1.727-1.854 2.486-3.456 2.486-5.267ZM73.506 84.5l-8.24-9.27c-1.644-1.81-2.402-3.454-2.402-5.266 0-2.95 2.106-5.225 5.098-5.225 2.422 0 3.98 1.564 5.544 3.201V84.5Z"/><path fill-rule="evenodd" clip-rule="evenodd" d="M74.957 65.708C77.106 63.475 78.791 62 82.036 62 86.586 62 90 65.413 90 69.795c0 2.613-1.139 4.972-3.54 7.543L74.957 89.81l-11.46-12.472C61.094 74.768 60 72.408 60 69.795 60 65.371 63.285 62 67.794 62c3.286 0 5.098 1.475 7.163 3.708Zm12.178 4.255c0-2.95-2.107-5.225-5.225-5.225v.001c-2.332 0-3.88 1.643-5.403 3.201V84.5l8.142-9.27c1.727-1.854 2.486-3.456 2.486-5.267ZM73.506 84.5l-8.24-9.27c-1.644-1.81-2.402-3.454-2.402-5.266 0-2.95 2.106-5.225 5.098-5.225 2.422 0 3.98 1.564 5.544 3.201V84.5Z"/><mask id="ba" maskUnits="userSpaceOnUse" x="11" y="11" width="128" height="128"><circle cx="75" cy="75" r="64"/></mask><g mask="url(#ba)"><path d="m49.366 123.743.115 3.096-2.682 2.259.97 1.165 1.82-1.538.068 2.375 1.515-.063-.133-3.489 2.379-2.009.275 7.351 1.588-.066-.425-10.41-.059-.026-3.84 3.215-.182-4.998-.058-.026-8 6.673 1.016 1.221 5.633-4.73Zm-9.91-10.099-1.885 10.349.052.038 9.312-4.893-.73-1.41-1.755.955-3.804-2.795.362-1.978-1.552-.266Zm3.654 5.782-3.565 1.907.767-3.963 2.798 2.056Zm-10.979-9.628-.538 8.991.032.035 7.253-6.698-1.064-1.152-4.572 4.223.538-8.991-.033-.035-7.252 6.698 1.064 1.151 4.572-4.222Zm-7.717-.04 1.256-.799-1.349-2.119 6.845-4.354-.859-1.35-6.844 4.354-1.34-2.106-1.256.799 3.547 5.575Zm-7.827-15.736 1.43-.415-.7-2.412 7.79-2.261-.446-1.537-7.79 2.26-.696-2.396-1.43.414 1.842 6.347Zm6.888-15.788a5.04 5.04 0 0 0-5.538-4.54 5.04 5.04 0 0 0-4.558 5.523 5.053 5.053 0 0 0 5.54 4.557 5.053 5.053 0 0 0 4.556-5.54Zm-1.513.148c.188 1.926-1.238 3.625-3.197 3.815-1.959.191-3.686-1.2-3.873-3.127-.186-1.91 1.24-3.61 3.199-3.8 1.958-.19 3.685 1.2 3.871 3.112Zm-1.108-12.808c2.171.254 3.362-1.175 3.724-2.783.433-1.936-.264-3.641-2.173-4.051-1.642-.353-2.568.757-3.319 1.888-.65.973-1.181 1.841-2.01 1.663-.673-.145-.94-.726-.8-1.383.166-.767.835-1.065 1.43-1.018l.035-1.531c-1.398-.12-2.528.798-2.84 2.253-.337 1.564.337 2.92 1.807 3.236 1.612.347 2.457-.846 3.237-2.037.625-.93 1.195-1.674 2.117-1.476 1.033.222 1.327 1.136 1.093 2.15-.224.966-1.079 1.666-2.26 1.527l-.04 1.562ZM17.12 53.485l8.898 3.604.6-1.483-3.01-1.22 1.963-4.85-5.887-2.383-2.565 6.332Zm5.108.343L19.1 52.56l1.363-3.367 3.13 1.267-1.364 3.367Zm10.477-9.114a5.04 5.04 0 0 0-1.455-7.012 5.04 5.04 0 0 0-7.017 1.432 5.053 5.053 0 0 0 1.446 7.026 5.053 5.053 0 0 0 7.026-1.446Zm-1.27-.836c-1.065 1.617-3.241 2.042-4.885.96-1.643-1.083-2.112-3.25-1.047-4.868 1.056-1.603 3.232-2.028 4.876-.945 1.643 1.082 2.112 3.25 1.056 4.853Zm7.147-11.324-9.005-.189-.034.034 6.974 6.987 1.11-1.108-4.397-4.405 9.005.19.034-.035-6.974-6.986-1.11 1.107 4.397 4.405Zm3.2-1.954c1.41 1.672 3.256 1.444 4.62.52 1.64-1.116 2.299-2.837 1.188-4.442-.956-1.381-2.391-1.205-3.713-.894-1.14.264-2.12.534-2.603-.163-.392-.566-.19-1.173.363-1.555.645-.447 1.337-.206 1.74.236l1.072-1.093c-.936-1.044-2.39-1.148-3.613-.301-1.316.91-1.752 2.36-.896 3.597.938 1.355 2.37 1.064 3.754.73 1.092-.25 2.017-.404 2.554.372.6.868.19 1.737-.674 2.315-.825.552-1.927.478-2.693-.432l-1.1 1.11Zm13.698-4.236a5.04 5.04 0 0 0 2.548-6.693 5.04 5.04 0 0 0-6.685-2.57 5.053 5.053 0 0 0-2.563 6.7 5.053 5.053 0 0 0 6.7 2.563Zm-.62-1.388c-1.768.79-3.83-.024-4.633-1.82-.803-1.798-.032-3.877 1.736-4.666 1.753-.784 3.816.03 4.618 1.827.803 1.797.032 3.876-1.721 4.659Zm9.068-6.072 1.122-.26c1.402-.327 2.145-1.584 1.793-3.095-.348-1.497-1.573-2.312-2.975-1.986l-4.41 1.026 2.175 9.35 1.558-.362-.884-3.803 5.434 3.024.81-1.322-4.623-2.572Zm-.167-3.821c.764-.178 1.41.197 1.573.899.163.701-.25 1.323-1.014 1.5l-2.416.562-.558-2.4 2.415-.561Zm17.601 7.612a5.04 5.04 0 0 0 5.476-4.616 5.04 5.04 0 0 0-4.6-5.49 5.053 5.053 0 0 0-5.49 4.615 5.053 5.053 0 0 0 4.614 5.491Zm.132-1.514c-1.93-.167-3.338-1.88-3.169-3.84.17-1.96 1.853-3.405 3.782-3.238 1.913.166 3.322 1.879 3.152 3.84-.17 1.96-1.853 3.404-3.765 3.238Zm14.816-5.185-1.7 5.821c-.363 1.244-1.52 1.84-2.78 1.472-1.29-.377-1.93-1.497-1.566-2.741l1.7-5.821-1.52-.444-1.73 5.862c-.605 2.074.514 3.95 2.695 4.588 2.165.632 4.118-.348 4.724-2.421l1.698-5.872-1.52-.444Zm5.768 8.311 1.031.515c1.288.644 2.662.15 3.355-1.239.687-1.374.264-2.783-1.024-3.427l-4.051-2.023-4.29 8.588 1.431.715 1.745-3.493 2.256 5.795 1.467-.501-1.92-4.93Zm2.311-3.049c.701.35.959 1.052.637 1.696-.322.644-1.037.859-1.739.509l-2.218-1.109 1.101-2.204 2.219 1.108Zm9.815 16.03c-1.384-1.33-1.416-3.56-.051-4.978 1.364-1.418 3.592-1.473 4.976-.141a3.385 3.385 0 0 1 1.01 1.904l1.491-.142c-.123-1.073-.652-2.092-1.459-2.869a5.04 5.04 0 0 0-7.16.15 5.04 5.04 0 0 0 .128 7.16c.807.777 1.846 1.266 2.923 1.347l.084-1.495a3.381 3.381 0 0 1-1.942-.936Zm4.904 8.605a5.04 5.04 0 0 0 7.05 1.259 5.039 5.039 0 0 0 1.281-7.046 5.053 5.053 0 0 0-7.059-1.272 5.053 5.053 0 0 0-1.272 7.06Zm1.248-.867c-1.104-1.59-.689-3.768.927-4.891 1.617-1.123 3.803-.752 4.908.838 1.095 1.577.679 3.755-.937 4.878-1.616 1.123-3.802.752-4.898-.825Zm7.851 10.847 3.526-8.29-.019-.043-9.08 3.874.616 1.442 5.724-2.443-3.526 8.29.019.043 9.08-3.874-.615-1.442-5.725 2.443Zm8.955 10.226-1.443-6.514-4.218.934-.204-.922-1.453.322.204.922-3.702.82.346 1.562 3.702-.82.81 3.655 1.453-.322-.81-3.655 2.765-.612 1.097 4.952 1.453-.322Zm-5.155 5.435.214 4.731 1.438-.065-.213-4.73 2.509-.114.17 3.756 1.486-.067-.241-5.354-9.59.432.327 7.272 1.487-.067-.256-5.674 2.669-.12Zm-.331 11.558-.147 1.143c-.184 1.428.735 2.563 2.274 2.76 1.523.197 2.715-.666 2.899-2.094l.578-4.491-9.521-1.225-.205 1.586 3.872.499-4.73 4.037.957 1.22 4.023-3.435Zm3.639 1.178c-.1.778-.677 1.252-1.391 1.16-.714-.092-1.153-.696-1.053-1.474l.317-2.46 2.444.315-.317 2.46Zm-5.639 6.599-1.404 4.523 1.376.427 1.403-4.523 2.399.744-1.114 3.591 1.421.441 1.589-5.119-9.169-2.846-2.158 6.953 1.422.441 1.683-5.424 2.552.792Zm-6.487 12.847 8.659-2.481.022-.043-8.728-4.613-.732 1.386 5.502 2.909-8.659 2.481-.022.042 8.727 4.614.733-1.387-5.502-2.908Zm-7.176 6.078c1.204-1.496 3.421-1.724 4.954-.49s1.784 3.448.58 4.944a3.384 3.384 0 0 1-1.808 1.174l.273 1.473c1.058-.217 2.027-.834 2.729-1.706a5.04 5.04 0 0 0-.781-7.119 5.039 5.039 0 0 0-7.121.758c-.702.872-1.098 1.951-1.084 3.03l1.497-.048c.025-.719.28-1.418.761-2.016Zm-3.119 7.202-3.579 3.101.943 1.089 3.579-3.101 1.645 1.898-2.842 2.462.974 1.125 4.052-3.51-6.286-7.256-5.503 4.767.975 1.125 4.293-3.719 1.749 2.019Zm-6.276 3.351c-1.31-1.75-3.167-1.631-4.583-.787-1.702 1.018-2.46 2.697-1.444 4.364.874 1.435 2.317 1.343 3.654 1.109 1.154-.197 2.149-.409 2.59.315.358.587.12 1.182-.454 1.531-.669.408-1.346.127-1.722-.337l-1.135 1.029c.875 1.097 2.319 1.285 3.59.511 1.366-.833 1.886-2.255 1.104-3.539-.857-1.408-2.305-1.2-3.705-.947-1.105.186-2.037.285-2.528-.521-.55-.902-.089-1.744.808-2.272.855-.502 1.951-.364 2.663.589l1.162-1.045Zm-8.558 13.645c2.648-1.007 3.385-4.248.88-6.245l-.959 1.176c1.491 1.231 1.025 3.123-.402 3.693-1.144.458-2.249-.152-2.64-1.132-.423-1.055-.122-2.243 1.676-3.565l-.767-1.917-1.485.594.445 1.115c-1.411 1.167-2.042 2.608-1.347 4.346.666 1.664 2.508 2.737 4.6 1.935Zm-3.26-8.587c.55-.22.793-.817.585-1.337a1.019 1.019 0 0 0-1.352-.58 1.015 1.015 0 0 0-.564 1.346c.208.52.796.785 1.33.571Z"/></g></svg><svg viewBox="0 0 28 28" id="close" xmlns="http://www.w3.org/2000/svg"><path fill-rule="evenodd" clip-rule="evenodd" d="M26.729 1.272a1 1 0 0 0-1.415 0L14.001 12.586 2.687 1.272a1 1 0 0 0-1.415 1.414L12.586 14 1.273 25.314a1 1 0 1 0 1.414 1.414L14 15.414l11.314 11.314a1 1 0 1 0 1.414-1.415L15.415 14 26.729 2.686a1 1 0 0 0 0-1.414Z"/></svg><svg viewBox="0 0 23 19" id="email" xmlns="http://www.w3.org/2000/svg"><path d="M11.352 10.684c.41 0 .83-.215 1.26-.646l8.922-8.828C21.15.847 20.45.666 19.432.666H2.922c-.867 0-1.469.168-1.804.503l8.972 8.87c.424.43.845.645 1.262.645ZM.267 16.683l7.25-7.168-7.27-7.167c-.158.294-.236.79-.236 1.487v11.32c0 .725.085 1.234.256 1.528Zm2.963 1.65h16.51c.854 0 1.452-.163 1.794-.491L14.14 10.52l-.677.687c-.69.656-1.395.985-2.112.985-.725 0-1.43-.329-2.113-.985l-.687-.687-7.372 7.311c.39.335 1.073.503 2.05.503Zm19.175-1.66c.164-.301.246-.807.246-1.518V3.835c0-.69-.075-1.176-.225-1.456l-7.25 7.136 7.23 7.158Z"/><path d="M11.352 10.684c.41 0 .83-.215 1.26-.646l8.922-8.828C21.15.847 20.45.666 19.432.666H2.922c-.867 0-1.469.168-1.804.503l8.972 8.87c.424.43.845.645 1.262.645ZM.267 16.683l7.25-7.168-7.27-7.167c-.158.294-.236.79-.236 1.487v11.32c0 .725.085 1.234.256 1.528Zm2.963 1.65h16.51c.854 0 1.452-.163 1.794-.491L14.14 10.52l-.677.687c-.69.656-1.395.985-2.112.985-.725 0-1.43-.329-2.113-.985l-.687-.687-7.372 7.311c.39.335 1.073.503 2.05.503Zm19.175-1.66c.164-.301.246-.807.246-1.518V3.835c0-.69-.075-1.176-.225-1.456l-7.25 7.136 7.23 7.158Z"/></svg><svg viewBox="0 0 101 97" id="heart-big" xmlns="http://www.w3.org/2000/svg"><path d="M50.5 17.418V92m0-74.582C43.691 10.4 36.775 3 26.352 3 7.363 3 3 13.754 3 26.527c0 8.16 3.39 15.372 11.11 23.72L50.5 92m0-74.582C57.309 10.4 64.225 3 74.648 3 93.637 3 98 13.754 98 26.527c0 8.16-3.39 15.372-11.11 23.72L50.5 92"/></svg><svg viewBox="0 0 30 28" id="heart-button" xmlns="http://www.w3.org/2000/svg"><path fill-rule="evenodd" clip-rule="evenodd" d="M14.957 3.708C17.106 1.475 18.791 0 22.036 0 26.586 0 30 3.413 30 7.795c0 2.613-1.139 4.973-3.54 7.543L14.957 27.81 3.497 15.338C1.094 12.768 0 10.408 0 7.795 0 3.371 3.285 0 7.794 0c3.286 0 5.098 1.475 7.163 3.708Zm12.178 4.255c0-2.95-2.107-5.225-5.225-5.225v.001c-2.332 0-3.88 1.643-5.403 3.201V22.5l8.142-9.27c1.727-1.854 2.486-3.456 2.486-5.267ZM13.506 22.5l-8.24-9.27c-1.644-1.81-2.402-3.454-2.402-5.266 0-2.95 2.106-5.225 5.098-5.225 2.422 0 3.98 1.564 5.544 3.201V22.5Z"/><path fill-rule="evenodd" clip-rule="evenodd" d="M14.957 3.708C17.106 1.475 18.791 0 22.036 0 26.586 0 30 3.413 30 7.795c0 2.613-1.139 4.973-3.54 7.543L14.957 27.81 3.497 15.338C1.094 12.768 0 10.408 0 7.795 0 3.371 3.285 0 7.794 0c3.286 0 5.098 1.475 7.163 3.708Zm12.178 4.255c0-2.95-2.107-5.225-5.225-5.225v.001c-2.332 0-3.88 1.643-5.403 3.201V22.5l8.142-9.27c1.727-1.854 2.486-3.456 2.486-5.267ZM13.506 22.5l-8.24-9.27c-1.644-1.81-2.402-3.454-2.402-5.266 0-2.95 2.106-5.225 5.098-5.225 2.422 0 3.98 1.564 5.544 3.201V22.5Z"/></svg><svg viewBox="0 0 65 63" id="heart-small" xmlns="http://www.w3.org/2000/svg"><path d="M32.831 12.234v45.255m0-45.255c-4.164-4.258-8.394-8.749-14.768-8.749-11.613 0-14.282 6.526-14.282 14.276 0 4.951 2.074 9.328 6.796 14.393L32.83 57.49m0-45.255c4.164-4.258 8.394-8.749 14.768-8.749 11.614 0 14.282 6.526 14.282 14.276 0 4.951-2.074 9.328-6.795 14.393L32.83 57.49"/></svg><svg viewBox="0 0 176 77" id="logo" xmlns="http://www.w3.org/2000/svg"><g clip-path="url(#ha)"><path d="M27.001 65.496c-3.526 0-6.337 2.556-6.337 5.752 0 3.196 2.811 5.752 6.337 5.752 1.402 0 2.766-.417 3.811-1.198l.052-.039-1.292-1.36-.045.03c-.704.477-1.565.743-2.506.743-2.352 0-4.268-1.754-4.268-3.928s1.916-3.928 4.268-3.928c.94 0 1.802.266 2.506.743l.045.03 1.293-1.36-.053-.04c-1.045-.78-2.409-1.197-3.81-1.197ZM46.359 65.496h-.146v11.199h2.069V69.79L55.941 77h.146V65.802h-2.07v6.904l-7.658-7.21Z"/><path fill-rule="evenodd" clip-rule="evenodd" d="M64.678 65.496c-3.525 0-6.357 2.555-6.357 5.752 0 3.197 2.832 5.752 6.357 5.752 3.526 0 6.337-2.556 6.337-5.752 0-3.196-2.811-5.752-6.337-5.752Zm-4.268 5.752c0-2.174 1.897-3.928 4.268-3.928 2.352 0 4.248 1.754 4.248 3.928s-1.896 3.928-4.248 3.928c-2.371 0-4.268-1.754-4.268-3.928ZM87.378 65.496c-3.525 0-6.356 2.555-6.356 5.752 0 3.197 2.83 5.752 6.356 5.752s6.338-2.556 6.338-5.752c0-3.196-2.811-5.752-6.338-5.752Zm-4.268 5.752c0-2.174 1.897-3.928 4.268-3.928 2.352 0 4.248 1.754 4.248 3.928s-1.896 3.928-4.248 3.928c-2.371 0-4.268-1.754-4.268-3.928Z"/><path d="M101.929 65.496c-3.487 0-6.358 2.591-6.358 5.752 0 3.161 2.871 5.752 6.358 5.752 2.091 0 3.783-.77 4.86-2.042 1.078-1.272 1.538-3.041 1.177-5.03l-.009-.05h-6.05v1.734h4.069c-.072 2.07-1.854 3.564-4.028 3.564-2.391 0-4.287-1.772-4.287-3.928 0-2.156 1.896-3.928 4.287-3.928.902 0 1.783.249 2.467.708l.046.031 1.231-1.42-.054-.037c-1.024-.69-2.327-1.106-3.709-1.106ZM129.969 65.622c-1.004 0-1.882.268-2.511.754a2.52 2.52 0 0 0-1.006 2.052c0 .946.428 1.587 1.064 2.06.632.472 1.47.78 2.293 1.067.646.234 1.223.46 1.64.757.414.295.663.657.663 1.163 0 .574-.249.987-.652 1.256-.405.271-.972.4-1.609.391-1.204-.018-2.247-.77-2.383-2.066l-.006-.063-2.028.344.005.054c.131 1.238.716 2.106 1.53 2.666.813.559 1.849.808 2.88.817 1.241.01 2.343-.28 3.136-.853.795-.575 1.276-1.432 1.276-2.546 0-.962-.407-1.638-1.012-2.141-.602-.502-1.401-.832-2.186-1.111a41.596 41.596 0 0 1-.193-.069h-.001c-.603-.216-1.157-.413-1.573-.658-.458-.269-.735-.585-.735-1.031 0-.37.151-.653.399-.846.25-.193.603-.299 1.009-.299.937 0 1.452.637 1.548 1.278l.009.061 1.987-.344-.008-.056c-.223-1.598-1.665-2.637-3.536-2.637ZM8.325 65.802H0v1.788h3.118v9.105h2.109V67.59h3.098v-1.788ZM17.328 65.802h-6.775v10.893h9.159v-1.788h-7.05v-2.882h5.878v-1.734h-5.878V67.59h4.666v-1.788ZM35.285 65.802h-2.11v10.893h2.11v-5.73H41.1v5.73h2.108V65.802H41.1v3.375h-5.816v-3.375ZM75.366 65.802h-2.11v10.893h7.035v-1.789h-4.925v-9.104ZM112.442 65.802h-2.109v10.893h2.109V65.802ZM122.214 65.802h-6.776v10.893h9.159v-1.788h-7.05v-2.882h5.879v-1.734h-5.879V67.59h4.667v-1.788ZM10.235 31.262H0v24.554h10.235c7.915 0 12.722-4.91 12.722-12.277 0-7.366-4.807-12.277-12.722-12.277ZM7.127 49.555V37.523h2.694c3.605 0 6.008 2.415 6.008 6.016 0 3.602-2.403 6.016-6.008 6.016H7.127Zm41.131 4.215-12.68-23.452h-.166L22.691 53.77l6.257 2.988 1.74-3.397h9.614l1.699 3.397 6.257-2.988Zm-15.415-5.647 2.61-5.443 2.653 5.443h-5.263Zm31.624-5.853-13.84-11.95h-.124v25.496h6.795V44.808l13.84 11.95h.125V31.262h-6.796V42.27Zm18.414 13.546V31.262h-7.127v24.554h7.127Zm18.411-13.546-13.84-11.95h-.125v25.496h6.797V44.808l13.839 11.95h.125V31.262h-6.796V42.27ZM138.878 39.433c-14.355-7.364-21.856-.263-22.084 3.456.552 11.728 11.156 13.114 11.156 13.114 18.896 3.156 13.204 18.936 13.204 18.936 9.934-14.074 7.286-29.194-2.276-35.506ZM125.984.089c-24.258 1.15-33.55 17.072-28.771 26.458 37.747-18.131 68.599-1.578 71.796 11.835C184.434 21.533 161.901-1.613 125.984.09Z"/><path d="M116.791 51.879c4.457 10.206 34.303 6.258 52.654-10.98 10.305-9.683 6.263-25.956-8.081-32.795 11.143 12.333-1.946 20.56-5.661 23.112-3.348 2.3-35.952 21.633-38.684 10.586 0 0-2.227 5.498-.228 10.077Z"/></g><defs><clipPath id="ha"><path d="M0 0h176v77H0z"/></clipPath></defs></svg><svg viewBox="0 0 20 21" id="phone" xmlns="http://www.w3.org/2000/svg"><path d="M5.209 14.77a25.947 25.947 0 0 0 3.117 2.667c1.094.793 2.188 1.422 3.281 1.886 1.094.465 2.13.698 3.107.698.663 0 1.282-.12 1.856-.36a4.37 4.37 0 0 0 1.559-1.127c.273-.3.489-.626.646-.974.157-.342.236-.687.236-1.036 0-.26-.052-.506-.154-.738a1.44 1.44 0 0 0-.523-.615l-3.148-2.236a3.493 3.493 0 0 0-.666-.369 1.573 1.573 0 0 0-.585-.123 1.31 1.31 0 0 0-.677.195 3.2 3.2 0 0 0-.676.533l-.729.718a.51.51 0 0 1-.39.164.686.686 0 0 1-.235-.041 8.459 8.459 0 0 1-.174-.072c-.322-.17-.732-.465-1.23-.882a25.269 25.269 0 0 1-2.892-2.902c-.424-.499-.718-.905-.882-1.22a2.45 2.45 0 0 1-.082-.184.854.854 0 0 1-.031-.226c0-.15.051-.277.154-.38l.728-.748c.225-.232.403-.458.533-.677.13-.218.195-.444.195-.676 0-.185-.045-.38-.133-.585a3.245 3.245 0 0 0-.38-.666L4.83 1.687a1.57 1.57 0 0 0-.636-.533 1.803 1.803 0 0 0-.78-.175c-.704 0-1.363.298-1.978.892a4.527 4.527 0 0 0-1.098 1.59A5.002 5.002 0 0 0 0 5.306c0 .985.229 2.02.687 3.107.458 1.08 1.08 2.164 1.866 3.25a25.668 25.668 0 0 0 2.656 3.108Z"/><path d="M5.209 14.77a25.947 25.947 0 0 0 3.117 2.667c1.094.793 2.188 1.422 3.281 1.886 1.094.465 2.13.698 3.107.698.663 0 1.282-.12 1.856-.36a4.37 4.37 0 0 0 1.559-1.127c.273-.3.489-.626.646-.974.157-.342.236-.687.236-1.036 0-.26-.052-.506-.154-.738a1.44 1.44 0 0 0-.523-.615l-3.148-2.236a3.493 3.493 0 0 0-.666-.369 1.573 1.573 0 0 0-.585-.123 1.31 1.31 0 0 0-.677.195 3.2 3.2 0 0 0-.676.533l-.729.718a.51.51 0 0 1-.39.164.686.686 0 0 1-.235-.041 8.459 8.459 0 0 1-.174-.072c-.322-.17-.732-.465-1.23-.882a25.269 25.269 0 0 1-2.892-2.902c-.424-.499-.718-.905-.882-1.22a2.45 2.45 0 0 1-.082-.184.854.854 0 0 1-.031-.226c0-.15.051-.277.154-.38l.728-.748c.225-.232.403-.458.533-.677.13-.218.195-.444.195-.676 0-.185-.045-.38-.133-.585a3.245 3.245 0 0 0-.38-.666L4.83 1.687a1.57 1.57 0 0 0-.636-.533 1.803 1.803 0 0 0-.78-.175c-.704 0-1.363.298-1.978.892a4.527 4.527 0 0 0-1.098 1.59A5.002 5.002 0 0 0 0 5.306c0 .985.229 2.02.687 3.107.458 1.08 1.08 2.164 1.866 3.25a25.668 25.668 0 0 0 2.656 3.108Z"/></svg><svg viewBox="0 0 128 128" id="text-animate" xmlns="http://www.w3.org/2000/svg"><mask id="ja" maskUnits="userSpaceOnUse" x="0" y="0" width="128" height="128"><circle cx="64" cy="64" r="64"/></mask><g mask="url(#ja)"><path d="m38.366 112.743.115 3.096-2.682 2.259.97 1.165 1.82-1.538.068 2.375 1.515-.063-.133-3.489 2.379-2.009.275 7.351 1.588-.066-.425-10.41-.059-.026-3.84 3.215-.182-4.998-.058-.026-8 6.673 1.016 1.221 5.633-4.73Zm-9.91-10.099-1.885 10.349.052.038 9.312-4.893-.73-1.41-1.755.955-3.804-2.795.362-1.978-1.552-.266Zm3.654 5.782-3.565 1.907.767-3.963 2.798 2.056Zm-10.979-9.628-.538 8.991.032.035 7.253-6.698-1.064-1.152-4.573 4.223.539-8.991-.033-.035-7.252 6.698 1.064 1.151 4.572-4.222Zm-7.717-.04 1.256-.799-1.349-2.12 6.845-4.353-.859-1.35-6.844 4.354-1.34-2.106-1.256.799 3.547 5.575ZM5.587 83.022l1.43-.415-.7-2.412 7.79-2.261-.446-1.537-7.79 2.26-.696-2.396-1.43.414 1.842 6.347Zm6.888-15.788a5.04 5.04 0 0 0-5.538-4.54 5.04 5.04 0 0 0-4.558 5.523 5.053 5.053 0 0 0 5.54 4.557 5.053 5.053 0 0 0 4.556-5.54Zm-1.513.148c.188 1.926-1.238 3.625-3.197 3.815-1.959.191-3.685-1.2-3.873-3.127-.186-1.91 1.24-3.61 3.199-3.8 1.958-.19 3.685 1.2 3.871 3.112ZM9.854 54.574c2.171.254 3.362-1.175 3.724-2.783.433-1.936-.264-3.641-2.173-4.051-1.642-.353-2.568.757-3.319 1.888-.65.973-1.181 1.841-2.01 1.663-.673-.145-.94-.726-.8-1.383.166-.767.835-1.065 1.43-1.018l.035-1.531c-1.398-.12-2.528.798-2.84 2.253-.337 1.564.337 2.92 1.807 3.236 1.611.347 2.457-.846 3.237-2.037.625-.93 1.194-1.674 2.117-1.476 1.033.222 1.327 1.136 1.093 2.15-.224.966-1.079 1.666-2.26 1.527l-.04 1.562ZM6.12 42.485l8.898 3.604.6-1.483-3.01-1.22 1.963-4.85-5.887-2.383-2.565 6.332Zm5.108.343L8.1 41.56l1.363-3.367 3.13 1.267-1.364 3.367Zm10.477-9.114a5.04 5.04 0 0 0-1.455-7.012 5.04 5.04 0 0 0-7.017 1.432 5.053 5.053 0 0 0 1.446 7.026 5.053 5.053 0 0 0 7.026-1.446Zm-1.27-.836c-1.065 1.617-3.241 2.042-4.885.96-1.643-1.083-2.112-3.25-1.048-4.868 1.057-1.603 3.233-2.028 4.877-.945 1.643 1.082 2.112 3.25 1.056 4.853Zm7.147-11.324-9.005-.189-.034.034 6.974 6.987 1.11-1.108-4.397-4.405 9.005.19.034-.035-6.974-6.986-1.11 1.107 4.397 4.405Zm3.2-1.954c1.41 1.672 3.256 1.444 4.62.52 1.64-1.116 2.299-2.837 1.188-4.442-.956-1.381-2.391-1.205-3.713-.894-1.14.264-2.12.534-2.603-.163-.392-.566-.19-1.173.363-1.555.645-.447 1.337-.206 1.74.236l1.072-1.093c-.936-1.044-2.39-1.148-3.613-.301-1.316.91-1.752 2.36-.896 3.597.938 1.355 2.37 1.064 3.754.73 1.092-.25 2.017-.404 2.554.372.6.868.19 1.737-.674 2.315-.825.552-1.927.478-2.693-.432l-1.1 1.11Zm13.698-4.236a5.04 5.04 0 0 0 2.548-6.693 5.04 5.04 0 0 0-6.685-2.57 5.053 5.053 0 0 0-2.563 6.7 5.053 5.053 0 0 0 6.7 2.563Zm-.62-1.388c-1.768.79-3.83-.024-4.633-1.82-.803-1.798-.032-3.877 1.736-4.667 1.753-.783 3.816.03 4.618 1.828.803 1.797.032 3.876-1.721 4.659Zm9.068-6.072 1.122-.26c1.402-.327 2.145-1.584 1.793-3.096-.348-1.496-1.573-2.311-2.975-1.985l-4.41 1.026 2.175 9.35 1.558-.362-.884-3.803 5.434 3.024.81-1.322-4.623-2.572Zm-.167-3.821c.764-.178 1.41.197 1.573.899.163.7-.25 1.323-1.014 1.5l-2.416.562-.558-2.4 2.415-.561Zm17.601 7.612a5.04 5.04 0 0 0 5.476-4.616 5.04 5.04 0 0 0-4.6-5.49 5.053 5.053 0 0 0-5.49 4.615 5.053 5.053 0 0 0 4.614 5.491Zm.132-1.514c-1.93-.167-3.338-1.88-3.169-3.84.17-1.96 1.853-3.405 3.782-3.237 1.913.165 3.322 1.877 3.152 3.838-.17 1.96-1.853 3.405-3.765 3.239ZM85.31 4.996l-1.7 5.821c-.363 1.244-1.52 1.84-2.78 1.472-1.29-.377-1.93-1.497-1.566-2.741l1.7-5.821-1.52-.444-1.73 5.862c-.605 2.074.514 3.95 2.695 4.588 2.165.632 4.118-.348 4.724-2.421L86.83 5.44l-1.52-.444Zm5.769 8.311 1.03.515c1.288.644 2.662.15 3.356-1.239.686-1.374.263-2.783-1.025-3.427l-4.05-2.024-4.29 8.588 1.43.716 1.745-3.493 2.256 5.795 1.467-.501-1.92-4.93Zm2.31-3.049c.701.35.959 1.052.637 1.696-.322.644-1.037.859-1.739.509l-2.218-1.109L91.17 9.15l2.219 1.108Zm9.815 16.03c-1.384-1.33-1.416-3.56-.051-4.978 1.364-1.418 3.592-1.473 4.976-.141a3.385 3.385 0 0 1 1.01 1.904l1.491-.142c-.123-1.073-.652-2.093-1.459-2.869a5.04 5.04 0 0 0-7.16.15 5.04 5.04 0 0 0 .128 7.16c.807.777 1.846 1.266 2.923 1.347l.084-1.495a3.381 3.381 0 0 1-1.942-.936Zm4.904 8.605a5.04 5.04 0 0 0 7.05 1.259 5.039 5.039 0 0 0 1.281-7.046 5.053 5.053 0 0 0-7.059-1.272 5.053 5.053 0 0 0-1.272 7.06Zm1.248-.867c-1.104-1.59-.689-3.768.927-4.891 1.617-1.123 3.803-.752 4.908.838 1.095 1.577.679 3.755-.937 4.878-1.616 1.123-3.802.752-4.898-.825Zm7.851 10.847 3.526-8.29-.019-.043-9.08 3.874.616 1.442 5.724-2.443-3.526 8.29.019.043 9.08-3.874-.615-1.442-5.725 2.443Zm8.955 10.226-1.443-6.514-4.218.934-.204-.922-1.453.322.204.922-3.702.82.346 1.562 3.702-.82.81 3.655 1.453-.322-.81-3.655 2.765-.612 1.097 4.952 1.453-.322Zm-5.155 5.435.214 4.731 1.438-.065-.213-4.73 2.509-.114.17 3.756 1.486-.067-.241-5.354-9.59.432.327 7.272 1.487-.067-.256-5.674 2.669-.12Zm-.331 11.558-.147 1.143c-.184 1.428.735 2.563 2.274 2.76 1.523.197 2.715-.666 2.899-2.094l.578-4.491-9.521-1.225-.205 1.586 3.872.499-4.73 4.037.957 1.22 4.023-3.435Zm3.639 1.178c-.1.778-.677 1.252-1.391 1.16-.714-.092-1.153-.696-1.053-1.474l.317-2.46 2.444.315-.317 2.46Zm-5.639 6.599-1.404 4.523 1.376.427 1.403-4.523 2.399.744-1.114 3.591 1.421.441 1.589-5.119-9.169-2.846-2.158 6.953 1.422.441 1.683-5.424 2.552.792Zm-6.487 12.847 8.659-2.481.022-.043-8.728-4.613-.732 1.386 5.502 2.909-8.659 2.48-.022.043 8.727 4.614.733-1.387-5.502-2.908Zm-7.176 6.077c1.204-1.495 3.421-1.723 4.954-.49 1.533 1.235 1.784 3.449.58 4.945a3.384 3.384 0 0 1-1.808 1.174l.273 1.473c1.058-.217 2.027-.834 2.729-1.706a5.04 5.04 0 0 0-.781-7.12 5.04 5.04 0 0 0-7.121.759c-.702.872-1.098 1.95-1.084 3.03l1.497-.048a3.39 3.39 0 0 1 .761-2.017Zm-3.119 7.203-3.58 3.101.944 1.089 3.579-3.101 1.645 1.898-2.842 2.462.974 1.125 4.052-3.51-6.286-7.256-5.503 4.767.975 1.125 4.293-3.719 1.749 2.019Zm-6.276 3.351c-1.31-1.75-3.167-1.631-4.583-.787-1.702 1.018-2.46 2.697-1.444 4.364.874 1.435 2.317 1.343 3.654 1.109 1.154-.197 2.149-.409 2.59.315.358.587.12 1.182-.453 1.531-.67.408-1.347.127-1.723-.337l-1.135 1.029c.874 1.097 2.32 1.285 3.59.511 1.366-.833 1.886-2.255 1.104-3.539-.857-1.408-2.305-1.2-3.705-.947-1.105.186-2.037.285-2.528-.521-.55-.902-.089-1.744.808-2.272.855-.502 1.951-.364 2.663.589l1.162-1.045Zm-8.558 13.645c2.648-1.007 3.385-4.248.88-6.245l-.959 1.176c1.491 1.231 1.025 3.123-.402 3.693-1.144.458-2.249-.152-2.64-1.132-.423-1.055-.122-2.243 1.676-3.565l-.767-1.917-1.485.594.445 1.115c-1.411 1.167-2.042 2.608-1.347 4.346.666 1.664 2.508 2.737 4.6 1.935Zm-3.26-8.587c.55-.22.793-.817.585-1.337a1.019 1.019 0 0 0-1.352-.58 1.015 1.015 0 0 0-.564 1.346c.208.52.796.785 1.33.571Z"/></g></svg></svg>